<svg width="4072" height="2147" xmlns="http://www.w3.org/2000/svg" xmlns:xlink="http://www.w3.org/1999/xlink" xml:space="preserve" overflow="hidden"><defs><clipPath id="clip0"><rect x="-137" y="283" width="4072" height="2147"/></clipPath></defs><g clip-path="url(#clip0)" transform="translate(137 -283)"><rect x="-71.9998" y="2198" width="4007" height="231" fill="#F2F2F2"/><text font-family="Arial,Arial_MSFontService,sans-serif" font-weight="700" font-size="64" transform="matrix(1 0 0 1 46.3435 2299)">Objectives provide a line</text><text font-family="Arial,Arial_MSFontService,sans-serif" font-weight="700" font-size="64" transform="matrix(1 0 0 1 799.156 2299)">-</text><text font-family="Arial,Arial_MSFontService,sans-serif" font-weight="700" font-size="64" transform="matrix(1 0 0 1 820.354 2299)">of</text><text font-family="Arial,Arial_MSFontService,sans-serif" font-weight="700" font-size="64" transform="matrix(1 0 0 1 880.51 2299)">-</text><text font-family="Arial,Arial_MSFontService,sans-serif" font-weight="700" font-size="64" transform="matrix(1 0 0 1 901.708 2299)">sight to an ideal state. Through a standardized terminology architecture, health care data will be </text><text font-family="Arial,Arial_MSFontService,sans-serif" font-weight="700" font-size="64" transform="matrix(1 0 0 1 1030.91 2376)">stored and shared more consistently across the enterprise. </text><text font-family="Arial,Arial_MSFontService,sans-serif" font-weight="700" font-size="73" transform="matrix(1 0 0 1 2580.08 1381)">HL7 FHIR, CIMI, …</text><text font-family="Arial,Arial_MSFontService,sans-serif" font-weight="700" font-size="73" transform="matrix(1 0 0 1 2570.48 987)">Decision support and analytics</text><text font-family="Arial,Arial_MSFontService,sans-serif" font-weight="700" font-size="73" transform="matrix(1 0 0 1 2570.48 1648)">SNOMED CT®, LOINC®, </text><text font-family="Arial,Arial_MSFontService,sans-serif" font-weight="700" font-size="73" transform="matrix(1 0 0 1 3428.14 1648)">RxNorm</text><text font-family="Arial,Arial_MSFontService,sans-serif" font-weight="700" font-size="73" transform="matrix(1 0 0 1 3712.88 1648)">, …</text><text fill="#7F7F7F" font-family="Arial,Arial_MSFontService,sans-serif" font-weight="400" font-size="55" transform="matrix(1 0 0 1 2638.32 1716)">Define what can be measured (Description </text><text fill="#7F7F7F" font-family="Arial,Arial_MSFontService,sans-serif" font-weight="400" font-size="55" transform="matrix(1 0 0 1 2638.32 1782)">Logic and Language)</text><text fill="#7F7F7F" font-family="Arial,Arial_MSFontService,sans-serif" font-weight="400" font-size="55" transform="matrix(1 0 0 1 2651.51 1444)">Define how to record a measurement (Numerical </text><text fill="#7F7F7F" font-family="Arial,Arial_MSFontService,sans-serif" font-weight="400" font-size="55" transform="matrix(1 0 0 1 2651.51 1510)">and subject of information)</text><text font-family="Arial,Arial_MSFontService,sans-serif" font-weight="700" font-size="73" transform="matrix(1 0 0 1 2570.48 1905)">Shared format for terminology</text><text fill="#7F7F7F" font-family="Arial,Arial_MSFontService,sans-serif" font-weight="400" font-size="55" transform="matrix(1 0 0 1 2638.32 1976)">Provides the interoperability foundation</text><text fill="#7F7F7F" font-family="Arial,Arial_MSFontService,sans-serif" font-weight="400" font-size="55" transform="matrix(1 0 0 1 2638.32 1065)">Define how to process measurements (Decision </text><text fill="#7F7F7F" font-family="Arial,Arial_MSFontService,sans-serif" font-weight="400" font-size="55" transform="matrix(1 0 0 1 2638.32 1131)">support, analytics…)</text><text fill="#003E5D" font-family="Arial,Arial_MSFontService,sans-serif" font-weight="700" font-size="64" transform="matrix(1 0 0 1 1601.09 1634)">Terminology Knowledge</text><text fill="#111634" font-family="Arial,Arial_MSFontService,sans-serif" font-weight="700" font-size="64" transform="matrix(1 0 0 1 1546.1 1889)">Foundational Architecture</text><text fill="#2E2824" font-family="Arial,Arial_MSFontService,sans-serif" font-weight="700" font-size="64" transform="matrix(1 0 0 1 1827.17 1379)">Statement Model </text><text fill="#006496" font-family="Arial,Arial_MSFontService,sans-serif" font-weight="700" font-size="64" transform="matrix(1 0 0 1 1631.85 1129)">Assertional Knowledge</text><text fill="#E5B611" font-family="Arial,Arial_MSFontService,sans-serif" font-weight="700" font-size="64" transform="matrix(1 0 0 1 1645.56 880)">Procedural Knowledge</text><text fill="#2E2925" font-family="Arial,Arial_MSFontService,sans-serif" font-style="italic" font-weight="400" font-size="50" transform="matrix(1 0 0 1 10.7218 920)">How can clinical </text><text fill="#2E2925" font-family="Arial,Arial_MSFontService,sans-serif" font-style="italic" font-weight="400" font-size="50" transform="matrix(1 0 0 1 10.7218 981)">decisions be </text><text fill="#2E2925" font-family="Arial,Arial_MSFontService,sans-serif" font-style="italic" font-weight="400" font-size="50" transform="matrix(1 0 0 1 10.7218 1041)">performed?</text><text fill="#2E2925" font-family="Arial,Arial_MSFontService,sans-serif" font-style="italic" font-weight="400" font-size="50" transform="matrix(1 0 0 1 6.71404 1214)">How is this related to </text><text fill="#2E2925" font-family="Arial,Arial_MSFontService,sans-serif" font-style="italic" font-weight="400" font-size="50" transform="matrix(1 0 0 1 6.71404 1275)">other clinical </text><text fill="#2E2925" font-family="Arial,Arial_MSFontService,sans-serif" font-style="italic" font-weight="400" font-size="50" transform="matrix(1 0 0 1 6.71404 1335)">concepts?</text><text fill="#2E2925" font-family="Arial,Arial_MSFontService,sans-serif" font-style="italic" font-weight="400" font-size="50" transform="matrix(1 0 0 1 13.7439 1481)">What was the </text><text fill="#2E2925" font-family="Arial,Arial_MSFontService,sans-serif" font-style="italic" font-weight="400" font-size="50" transform="matrix(1 0 0 1 13.7439 1542)">clinical </text><text fill="#2E2925" font-family="Arial,Arial_MSFontService,sans-serif" font-style="italic" font-weight="400" font-size="50" transform="matrix(1 0 0 1 13.7439 1602)">phenomenon?</text><text fill="#2E2925" font-family="Arial,Arial_MSFontService,sans-serif" font-style="italic" font-weight="400" font-size="50" transform="matrix(1 0 0 1 -4.49167 1753)">What are the terms </text><text fill="#2E2925" font-family="Arial,Arial_MSFontService,sans-serif" font-style="italic" font-weight="400" font-size="50" transform="matrix(1 0 0 1 -4.49167 1814)">and codes used to </text><text fill="#2E2925" font-family="Arial,Arial_MSFontService,sans-serif" font-style="italic" font-weight="400" font-size="50" transform="matrix(1 0 0 1 -4.49167 1874)">describe a concept</text><text fill="#2E2925" font-family="Arial,Arial_MSFontService,sans-serif" font-style="italic" font-weight="400" font-size="50" transform="matrix(1 0 0 1 -9.22152 2053)">How do we build </text><text fill="#2E2925" font-family="Arial,Arial_MSFontService,sans-serif" font-style="italic" font-weight="400" font-size="50" transform="matrix(1 0 0 1 -9.22152 2114)">and manage it?</text><rect x="552" y="2014.21" width="560.793" height="118.793"/><path d="M1112.79 2014.21 1317 1810 1317 1928.79 1112.79 2133Z" fill-rule="evenodd"/><path d="M552 2014.21 756.207 1810 1317 1810 1112.79 2014.21Z" fill="#323232" fill-rule="evenodd"/><text fill="#FFFFFF" font-family="Arial,Arial_MSFontService,sans-serif" font-weight="700" font-size="92" transform="matrix(1 0 0 1 828.643 2109)">F</text><rect x="561" y="1759.21" width="560.793" height="118.794" fill="#ED7D31"/><path d="M1121.79 1759.21 1326 1555 1326 1673.79 1121.79 1878Z" fill="#BF6427" fill-rule="evenodd"/><path d="M561 1759.21 765.207 1555 1326 1555 1121.79 1759.21Z" fill="#F19659" fill-rule="evenodd"/><text fill="#FFFFFF" font-family="Arial,Arial_MSFontService,sans-serif" font-weight="700" font-size="92" transform="matrix(1 0 0 1 828.643 1855)">T</text><rect x="561" y="1501.21" width="560.793" height="118.793" fill="#203864"/><path d="M1121.79 1501.21 1326 1297 1326 1415.79 1121.79 1620Z" fill="#1A2D50" fill-rule="evenodd"/><path d="M561 1501.21 765.207 1297 1326 1297 1121.79 1501.21Z" fill="#4C5F82" fill-rule="evenodd"/><text fill="#FFFFFF" font-family="Arial,Arial_MSFontService,sans-serif" font-weight="700" font-size="92" transform="matrix(1 0 0 1 826.065 1600)">S</text><path d="M2386.5 1562.5C2400.58 1562.5 2412 1564.4 2412 1566.75L2412 1611.36C2412 1613.71 2423.42 1615.61 2437.5 1615.61 2423.42 1615.61 2412 1617.51 2412 1619.86L2412 1672.25C2412 1674.6 2400.58 1676.5 2386.5 1676.5" stroke="#A5A5A5" stroke-width="9.16667" stroke-miterlimit="8" fill="none" fill-rule="evenodd"/><path d="M2386.5 799.5C2400.58 799.5 2412 801.403 2412 803.75L2412 955.679C2412 958.026 2423.42 959.929 2437.5 959.929 2423.42 959.929 2412 961.832 2412 964.179L2412 1161.25C2412 1163.6 2400.58 1165.5 2386.5 1165.5" stroke="#A5A5A5" stroke-width="9.16667" stroke-miterlimit="8" fill="none" fill-rule="evenodd"/><path d="M2386.5 1301.5C2400.58 1301.5 2412 1303.4 2412 1305.75L2412 1354.64C2412 1356.99 2423.42 1358.89 2437.5 1358.89 2423.42 1358.89 2412 1360.79 2412 1363.14L2412 1411.25C2412 1413.6 2400.58 1415.5 2386.5 1415.5" stroke="#A5A5A5" stroke-width="9.16667" stroke-miterlimit="8" fill="none" fill-rule="evenodd"/><path d="M2386.5 1815.5C2400.58 1815.5 2412 1817.4 2412 1819.75L2412 1864.36C2412 1866.71 2423.42 1868.61 2437.5 1868.61 2423.42 1868.61 2412 1870.51 2412 1872.86L2412 1925.25C2412 1927.6 2400.58 1929.5 2386.5 1929.5" stroke="#A5A5A5" stroke-width="9.16667" stroke-miterlimit="8" fill="none" fill-rule="evenodd"/><rect x="561" y="1252.21" width="560.793" height="118.794" fill="#4472C4"/><path d="M1121.79 1252.21 1326 1048 1326 1166.79 1121.79 1371Z" fill="#375C9E" fill-rule="evenodd"/><path d="M561 1252.21 765.207 1048 1326 1048 1121.79 1252.21Z" fill="#698ED0" fill-rule="evenodd"/><text fill="#FFFFFF" font-family="Arial,Arial_MSFontService,sans-serif" font-weight="700" font-size="92" transform="matrix(1 0 0 1 823.487 1342)">A</text><rect x="552" y="995.207" width="560.793" height="118.793" fill="#FFC000"/><path d="M1112.79 995.207 1317 791 1317 909.793 1112.79 1114Z" fill="#CD9A00" fill-rule="evenodd"/><path d="M552 995.207 756.207 791 1317 791 1112.79 995.207Z" fill="#FFCC32" fill-rule="evenodd"/><text fill="#FFFFFF" font-family="Arial,Arial_MSFontService,sans-serif" font-weight="700" font-size="92" transform="matrix(1 0 0 1 826.064 1093)">P</text><path d="M1317 851 1589.96 851" stroke="#FFC000" stroke-width="2.29167" stroke-miterlimit="8" fill="none" fill-rule="evenodd"/><path d="M1326 1107 1554.21 1107" stroke="#4472C4" stroke-width="2.29167" stroke-miterlimit="8" fill="none" fill-rule="evenodd"/><path d="M1326 1356 1768.25 1356" stroke="#ED7D31" stroke-width="2.29167" stroke-miterlimit="8" fill="none" fill-rule="evenodd"/><path d="M1326 1615 1554.21 1615" stroke="#203864" stroke-width="2.29167" stroke-miterlimit="8" fill="none" fill-rule="evenodd"/><path d="M1317 1870 1488.12 1870" stroke="#843C0C" stroke-width="2.29167" stroke-miterlimit="8" fill="none" fill-rule="evenodd"/><text fill="#2E2925" font-family="Arial Black,Arial Black_MSFontService,sans-serif" font-weight="900" font-size="147" transform="matrix(1 0 0 1 -48.4743 465)">The Knowledge Architecture</text><text fill="#2E2925" font-family="Arial,Arial_MSFontService,sans-serif" font-weight="400" font-size="64" transform="matrix(1 0 0 1 -23.1491 587)">Each architectural layer addresses separate concerns that can be reused, developed, and updated independently. A Knowledge </text><text fill="#2E2925" font-family="Arial,Arial_MSFontService,sans-serif" font-weight="400" font-size="64" transform="matrix(1 0 0 1 -23.1491 664)">Architecture can individually resolve issues in the data within their layers vs a whole system, leading to much more agile im</text><text fill="#2E2925" font-family="Arial,Arial_MSFontService,sans-serif" font-weight="400" font-size="64" transform="matrix(1 0 0 1 3451.59 664)">pro</text><text fill="#2E2925" font-family="Arial,Arial_MSFontService,sans-serif" font-weight="400" font-size="64" transform="matrix(1 0 0 1 3543.83 664)">vement.</text></g></svg>